<?xml version="1.0" standalone="no"?>
<!DOCTYPE svg PUBLIC "-//W3C//DTD SVG 20010904//EN"
 "http://www.w3.org/TR/2001/REC-SVG-20010904/DTD/svg10.dtd">
<svg version="1.0" xmlns="http://www.w3.org/2000/svg"
 width="1280.000000pt" height="725.000000pt" viewBox="0 0 1280.000000 725.000000"
 preserveAspectRatio="xMidYMid meet">
<metadata>
Created by potrace 1.15, written by Peter Selinger 2001-2017
</metadata>
<g transform="translate(0.000000,725.000000) scale(0.100000,-0.100000)"
fill="#000000" stroke="none">
<path d="M6671 7240 c-555 -118 -981 -766 -1018 -1549 -18 -397 103 -807 310
-1046 l35 -40 -92 -96 c-235 -246 -443 -632 -618 -1151 -24 -71 -45 -128 -48
-128 -3 0 -20 40 -39 88 -110 285 -276 585 -426 772 -28 36 -89 101 -133 145
l-82 81 50 69 c159 221 270 571 270 854 0 120 -31 385 -57 480 -129 489 -460
826 -853 870 -245 27 -477 -63 -676 -264 -169 -170 -288 -399 -348 -666 -116
-521 20 -1082 342 -1408 42 -43 92 -89 111 -103 l34 -26 -40 -48 c-58 -70
-150 -211 -220 -339 -89 -162 -158 -318 -266 -602 l-13 -33 -33 103 c-176 541
-401 973 -640 1227 -28 30 -51 55 -51 56 0 0 25 38 56 84 154 230 249 522 274
835 7 98 5 157 -11 320 -21 214 -42 315 -95 464 -131 364 -402 670 -694 785
-144 56 -174 61 -355 61 -158 -1 -176 -3 -255 -29 -709 -233 -1079 -1196 -793
-2060 107 -321 291 -569 560 -756 l22 -15 -50 -80 c-69 -109 -206 -390 -272
-560 -330 -840 -522 -1969 -553 -3247 l-7 -288 6366 0 6367 0 0 144 c0 79 -5
247 -10 373 -65 1460 -350 2671 -809 3434 l-22 37 68 21 c129 39 283 147 391
274 181 212 301 484 353 805 11 68 25 135 30 150 6 15 19 68 29 117 86 413 24
843 -161 1117 -125 185 -294 303 -494 344 -38 8 -95 24 -125 35 -79 30 -144
40 -245 40 -447 -1 -832 -443 -950 -1090 -9 -47 -27 -131 -40 -186 -44 -180
-58 -290 -58 -470 0 -222 28 -386 95 -555 27 -69 28 -76 13 -85 -212 -123
-379 -293 -540 -550 -80 -127 -233 -442 -301 -622 l-58 -152 -41 97 c-59 137
-138 291 -207 405 -33 55 -58 100 -56 101 2 2 37 19 78 39 408 194 663 772
620 1407 -11 166 -82 497 -136 633 -91 233 -229 436 -388 575 -86 76 -135 108
-229 152 -495 229 -996 -107 -1171 -785 -40 -153 -57 -301 -57 -485 1 -336 64
-624 199 -899 25 -53 47 -100 47 -104 0 -5 -27 -20 -59 -34 -245 -103 -498
-388 -705 -795 -43 -84 -85 -173 -95 -197 l-17 -44 -53 154 c-160 464 -351
826 -558 1062 l-60 68 28 22 c228 179 399 424 514 738 99 271 145 696 105 974
-45 317 -156 564 -335 746 -156 158 -303 227 -499 234 -58 2 -126 0 -150 -5z"/>
</g>
</svg>
