<?xml version="1.0" standalone="no"?>
<!DOCTYPE svg PUBLIC "-//W3C//DTD SVG 20010904//EN"
 "http://www.w3.org/TR/2001/REC-SVG-20010904/DTD/svg10.dtd">
<svg version="1.0" xmlns="http://www.w3.org/2000/svg"
 width="1280.000000pt" height="813.000000pt" viewBox="0 0 1280.000000 813.000000"
 preserveAspectRatio="xMidYMid meet">
<g transform="translate(0.000000,813.000000) scale(0.100000,-0.100000)"
fill="#000000" stroke="none">
<path d="M3665 8106 c-117 -42 -190 -106 -245 -216 -58 -115 -73 -243 -46
-397 29 -163 92 -279 214 -393 l83 -78 -50 -56 c-28 -31 -67 -81 -87 -111 -20
-30 -42 -55 -48 -55 -6 0 -33 16 -61 35 -89 63 -205 82 -314 49 l-53 -16 -64
32 c-35 17 -64 36 -64 41 0 5 13 35 29 67 99 197 107 437 19 621 -40 84 -129
178 -206 217 -52 26 -66 29 -158 29 -95 0 -104 -2 -175 -37 -193 -95 -319
-326 -319 -583 0 -118 17 -192 65 -291 44 -91 120 -168 202 -206 35 -17 63
-32 63 -35 0 -3 -20 -35 -44 -72 -24 -36 -58 -94 -75 -128 -17 -35 -37 -63
-44 -63 -7 0 -24 26 -37 58 -68 169 -206 367 -300 432 -102 70 -97 64 -82 102
54 135 56 258 8 452 -42 166 -83 251 -158 332 -98 104 -229 155 -351 134 -213
-36 -306 -88 -377 -214 -69 -120 -75 -269 -20 -481 41 -161 83 -246 159 -328
61 -64 160 -127 201 -127 41 0 39 -24 -8 -100 -25 -41 -65 -118 -88 -170 -23
-52 -46 -96 -52 -98 -6 -2 -25 28 -43 65 -46 93 -160 209 -250 251 -226 108
-485 30 -635 -191 -99 -147 -130 -378 -75 -557 42 -135 145 -268 256 -331 30
-17 55 -35 55 -39 0 -5 -18 -41 -39 -82 -229 -423 -385 -1251 -408 -2155 -6
-227 -5 -255 10 -271 15 -16 16 -29 7 -97 -14 -107 -38 -438 -45 -615 -3 -80
-8 -171 -11 -202 l-6 -58 56 0 c62 0 69 -7 80 -76 4 -23 17 -73 30 -112 l22
-72 -17 -137 c-10 -76 -25 -235 -34 -353 -9 -121 -29 -285 -45 -375 -35 -191
-46 -275 -60 -460 -5 -77 -14 -200 -20 -274 -5 -74 -10 -174 -10 -222 l0 -89
614 0 c536 0 615 2 620 15 8 23 674 23 682 0 5 -13 88 -15 664 -15 571 0 659
2 670 15 14 17 895 21 6409 30 l3144 5 -6 103 c-20 317 -46 584 -68 693 -5 27
-11 174 -13 325 -6 373 -29 664 -82 1032 l-26 178 23 87 c21 77 24 107 22 262
-6 706 -148 1352 -383 1736 -22 35 -40 66 -40 69 0 3 24 17 53 31 118 60 198
157 242 296 77 242 11 530 -161 701 -85 86 -186 129 -323 139 l-34 3 -33 146
c-79 353 -179 633 -291 807 -18 29 -31 57 -29 61 3 4 39 24 81 45 138 68 246
190 310 350 133 328 -7 637 -296 654 -141 8 -269 -47 -391 -170 -61 -61 -86
-96 -122 -170 -63 -129 -79 -197 -74 -328 3 -99 6 -112 41 -182 20 -42 37 -80
37 -85 0 -5 -13 -19 -30 -31 -67 -50 -206 -278 -257 -419 -6 -18 -16 -33 -22
-33 -6 0 -26 24 -44 53 -19 28 -64 80 -100 114 -37 34 -67 66 -67 70 0 5 22
18 48 30 189 87 294 372 232 629 -37 156 -113 279 -220 358 -79 58 -146 81
-240 81 -97 -1 -183 -39 -256 -113 -96 -98 -144 -230 -144 -397 0 -122 19
-206 68 -305 20 -41 38 -78 40 -82 2 -3 -24 -21 -58 -39 -34 -18 -85 -56 -114
-85 -57 -55 -159 -202 -190 -272 -11 -25 -25 -42 -33 -40 -8 2 -29 39 -47 83
-71 172 -136 281 -231 383 -30 33 -55 64 -55 70 0 5 21 24 48 40 61 40 131
113 174 182 107 171 136 395 74 566 -47 128 -119 207 -230 252 -51 21 -72 24
-147 20 -73 -3 -97 -9 -155 -38 -206 -100 -348 -368 -331 -620 10 -132 46
-225 122 -310 l45 -51 -88 -87 c-102 -100 -162 -192 -237 -360 -29 -64 -56
-116 -61 -115 -5 2 -29 40 -53 85 -58 112 -122 200 -199 275 l-64 62 30 38
c81 104 117 224 109 364 -10 160 -56 260 -168 364 -82 75 -147 99 -269 100
-86 0 -101 -3 -160 -31 -82 -40 -138 -88 -189 -165 -131 -195 -110 -483 46
-650 51 -54 52 -79 4 -79 -57 0 -139 -40 -200 -96 -32 -30 -63 -54 -68 -54 -5
0 -30 33 -55 73 -26 39 -72 100 -102 134 -31 33 -56 65 -56 70 0 5 12 25 26
44 131 175 152 431 53 637 -53 111 -136 195 -244 248 -71 35 -86 39 -177 42
-71 3 -115 0 -157 -12 l-58 -16 -79 78 c-89 88 -157 125 -267 149 -219 46
-456 -81 -561 -300 -42 -87 -55 -141 -62 -261 -10 -150 39 -314 125 -420 17
-21 31 -44 31 -50 0 -7 -16 -28 -36 -47 -51 -49 -117 -151 -180 -280 -54 -108
-56 -111 -82 -103 -15 4 -51 12 -81 19 -53 11 -56 14 -94 76 -21 35 -57 88
-80 118 -23 29 -46 60 -52 67 -7 10 7 28 52 68 114 104 171 226 180 386 9 168
-39 302 -150 417 -88 92 -162 126 -282 131 -70 3 -106 0 -146 -13 -266 -87
-406 -422 -298 -711 12 -31 41 -85 65 -120 l45 -65 -75 -75 c-41 -41 -100
-115 -132 -164 -31 -50 -59 -90 -62 -90 -2 0 -34 12 -71 26 -63 24 -69 30 -96
83 -53 100 -124 200 -190 269 -36 36 -65 68 -65 69 0 2 19 27 43 56 155 191
154 511 -4 753 -76 118 -180 197 -313 241 -85 28 -123 28 -201 -1z m2950
-1257 c22 -22 64 -56 93 -75 28 -19 52 -38 52 -41 0 -16 -64 -103 -74 -100 -6
2 -24 28 -39 58 -16 30 -44 81 -63 113 -32 54 -38 86 -16 86 4 0 26 -18 47
-41z m-1606 -1659 c17 -9 15 -17 -28 -119 -33 -80 -51 -110 -63 -111 -10 0
-18 4 -18 8 0 4 -22 31 -50 59 -27 28 -50 57 -50 65 1 18 57 92 78 100 26 10
111 9 131 -2z m3667 -95 c-25 -98 -47 -98 -72 0 -6 24 -4 25 36 25 40 0 42 -1
36 -25z m988 -1970 c4 -24 3 -52 -3 -62 -7 -14 -12 -6 -26 41 -14 48 -15 60
-4 67 20 12 26 3 33 -46z m-5450 -249 l26 -44 -21 -46 c-22 -51 -34 -57 -43
-23 -9 35 -7 157 3 157 5 0 21 -20 35 -44z"/>
</g>
</svg>
