<?xml version="1.0" standalone="no"?>
<!DOCTYPE svg PUBLIC "-//W3C//DTD SVG 20010904//EN"
 "http://www.w3.org/TR/2001/REC-SVG-20010904/DTD/svg10.dtd">
<svg version="1.0" xmlns="http://www.w3.org/2000/svg"
 width="1280.000000pt" height="1114.000000pt" viewBox="0 0 1280.000000 1114.000000"
 preserveAspectRatio="xMidYMid meet">
<metadata>
Created by potrace 1.15, written by Peter Selinger 2001-2017
</metadata>
<g transform="translate(0.000000,1114.000000) scale(0.100000,-0.100000)"
fill="#000000" stroke="none">
<path d="M5950 11129 c-1020 -52 -2005 -278 -2940 -672 -937 -395 -1759 -924
-2522 -1623 -295 -271 -381 -377 -439 -547 -102 -295 -38 -609 169 -828 168
-179 355 -261 597 -262 133 0 214 15 324 61 103 43 174 96 311 227 583 559
1138 952 1820 1289 788 390 1561 608 2490 703 252 26 1028 26 1280 0 948 -97
1720 -317 2530 -723 647 -324 1214 -727 1755 -1245 192 -184 251 -225 397
-275 196 -66 407 -56 594 31 105 48 181 103 266 194 207 219 271 533 169 828
-58 170 -144 276 -439 547 -921 844 -1945 1451 -3127 1852 -1014 345 -2142
499 -3235 443z"/>
<path d="M5950 7999 c-1231 -91 -2374 -518 -3350 -1250 -275 -207 -629 -518
-737 -648 -67 -81 -136 -219 -164 -326 -29 -111 -29 -289 0 -400 75 -292 304
-521 595 -595 97 -25 272 -27 377 -5 161 34 267 97 439 259 820 774 1729 1198
2825 1318 75 8 248 13 465 13 217 0 390 -5 465 -13 596 -65 1093 -208 1610
-462 421 -208 777 -453 1128 -778 206 -190 250 -226 342 -271 125 -63 218 -84
360 -84 150 0 227 17 360 83 163 80 278 190 364 351 155 290 117 656 -93 911
-105 127 -460 439 -731 643 -985 740 -2128 1165 -3370 1255 -160 11 -728 11
-885 -1z"/>
<path d="M6198 4759 c-658 -39 -1289 -285 -1808 -703 -114 -92 -297 -274 -342
-340 -53 -76 -95 -171 -119 -265 -25 -95 -27 -265 -5 -369 54 -250 235 -472
473 -577 202 -90 472 -87 676 9 84 39 158 93 279 204 323 295 752 442 1176
403 363 -33 658 -165 941 -421 58 -53 126 -110 151 -127 281 -190 647 -185
925 12 78 55 182 165 229 243 168 276 156 638 -28 896 -101 142 -420 414 -656
561 -457 283 -960 441 -1511 475 -179 11 -193 11 -381 -1z"/>
<path d="M6308 1629 c-164 -17 -344 -99 -464 -212 -114 -106 -184 -219 -230
-374 -36 -119 -39 -316 -6 -437 78 -285 288 -495 577 -578 115 -32 315 -32
430 0 289 83 500 294 576 578 17 62 22 108 22 214 0 118 -3 146 -27 225 -45
147 -97 237 -201 341 -184 186 -417 270 -677 243z"/>
</g>
</svg>
